<?xml version="1.0" standalone="no"?>
<!DOCTYPE svg PUBLIC "-//W3C//DTD SVG 20010904//EN"
 "http://www.w3.org/TR/2001/REC-SVG-20010904/DTD/svg10.dtd">
<svg version="1.0" xmlns="http://www.w3.org/2000/svg"
 width="512.000000pt" height="512.000000pt" viewBox="0 0 512.000000 512.000000"
 preserveAspectRatio="xMidYMid meet">
<metadata>
Created by potrace 1.14, written by Peter Selinger 2001-2017
</metadata>
<g transform="translate(0.000000,512.000000) scale(0.100000,-0.100000)"
fill="#000000" stroke="none">
<path d="M420 2970 l0 -570 73 -1 c181 -1 404 2 423 5 12 3 37 7 55 10 149 24
300 128 367 254 57 107 73 176 73 312 -1 95 -5 120 -27 188 -50 150 -136 247
-277 313 -101 47 -183 58 -449 59 l-238 1 0 -571z m510 319 c143 -38 224 -142
233 -294 9 -152 -51 -267 -168 -321 -63 -29 -95 -35 -222 -39 l-103 -3 0 333
c0 310 1 334 18 337 37 7 199 -2 242 -13z"/>
<path d="M1590 3513 c-3 -212 0 -1106 3 -1110 6 -6 226 -5 236 1 4 3 7 106 7
230 -1 142 3 227 9 229 19 6 414 1 420 -5 4 -3 6 -108 6 -232 l1 -226 36 -1
c119 -1 205 0 208 4 4 3 7 1006 4 1120 0 15 -13 17 -124 17 l-125 0 0 -182 c0
-101 0 -200 0 -221 l-1 -37 -217 2 -218 3 0 215 0 215 -122 3 -123 3 0 -28z"/>
<path d="M2726 3158 c2 -402 6 -447 50 -543 50 -107 135 -183 243 -215 230
-69 459 17 555 209 52 103 58 158 58 531 0 190 0 358 -1 373 l-1 28 -122 -3
-123 -3 -1 -375 c0 -365 -1 -376 -23 -425 -28 -63 -46 -83 -96 -106 -82 -38
-187 -14 -239 54 -49 63 -53 102 -51 482 0 193 -1 356 -3 363 -3 9 -37 12
-126 12 l-122 0 2 -382z"/>
<path d="M3839 3538 c-6 -16 -2 -1131 4 -1135 11 -7 506 -5 552 3 177 28 285
128 301 280 13 120 -42 223 -149 278 l-48 25 22 18 c96 76 128 127 133 209 7
103 -32 184 -117 247 -90 67 -139 76 -436 77 -144 0 -261 -1 -262 -2z m502
-230 c53 -18 76 -61 71 -134 -2 -28 -32 -61 -66 -74 -24 -9 -128 -14 -226 -11
l-36 1 2 113 c1 61 3 113 3 115 2 7 228 -1 252 -10z m39 -446 c61 -24 88 -107
55 -175 -25 -52 -58 -62 -215 -62 l-135 0 0 115 c-1 63 1 120 3 127 4 14 254
10 292 -5z"/>
<path d="M2082 2131 c-60 -24 -123 -81 -152 -137 -20 -40 -25 -63 -25 -129 1
-70 4 -87 30 -134 55 -100 149 -152 266 -146 71 4 147 35 183 74 18 20 18 21
-16 55 l-35 35 -36 -30 c-50 -42 -125 -50 -190 -21 -124 55 -139 242 -26 323
60 43 171 35 221 -15 13 -12 20 -9 51 20 l37 35 -34 30 c-67 58 -183 75 -274
40z"/>
<path d="M3785 2130 c-147 -57 -219 -238 -152 -382 47 -101 130 -157 240 -163
122 -7 213 45 268 152 119 233 -111 487 -356 393z m189 -100 c23 -11 52 -36
66 -57 21 -31 25 -48 25 -108 0 -86 -25 -132 -91 -164 -143 -72 -290 50 -260
213 8 43 58 104 101 122 44 19 113 17 159 -6z"/>
<path d="M429 2123 c-1 -26 -1 -484 0 -509 1 -22 4 -22 171 -22 137 0 170 3
171 14 0 8 1 29 2 47 l1 32 -122 3 -122 3 0 64 0 64 88 -1 c144 -1 134 -5 130
49 l-3 47 -107 0 -108 0 0 63 0 63 120 0 c126 0 123 -1 123 45 0 59 13 55
-173 55 -155 0 -170 -2 -171 -17z"/>
<path d="M869 2124 c0 -19 0 -385 1 -481 l0 -52 111 0 c148 1 237 28 287 89
64 78 82 210 39 303 -29 63 -66 102 -127 130 -37 17 -69 22 -177 25 -124 4
-133 3 -134 -14z m252 -95 c97 -33 137 -149 87 -249 -31 -60 -72 -82 -164 -88
l-74 -5 0 177 0 176 59 0 c32 0 73 -5 92 -11z"/>
<path d="M1405 1943 c1 -161 5 -205 19 -238 34 -80 87 -115 179 -120 89 -5
160 33 199 108 21 39 23 58 26 245 l4 203 -53 -3 -54 -3 -1 -185 c-1 -102 -2
-190 -3 -196 0 -7 -15 -26 -33 -43 -37 -36 -83 -41 -129 -14 -45 27 -51 56
-52 255 l-2 183 -51 3 -51 3 2 -198z"/>
<path d="M2641 2123 c-5 -11 -52 -133 -104 -272 -69 -183 -92 -254 -82 -257 7
-3 32 -4 56 -2 43 3 44 4 64 58 11 31 23 60 27 65 8 12 197 11 208 -1 4 -5 15
-34 25 -65 l17 -56 54 0 c31 1 54 5 54 11 0 6 -44 128 -98 271 l-98 260 -56 3
c-47 2 -59 0 -67 -15z m127 -298 c-4 -4 -64 -7 -104 -6 l-31 1 35 101 35 102
34 -98 c19 -53 33 -99 31 -100z"/>
<path d="M2947 2133 c-2 -5 -3 -26 -3 -48 l1 -40 77 -3 77 -3 0 -202 c-1 -111
0 -212 0 -224 1 -20 6 -22 51 -20 l50 1 0 36 c1 19 1 118 1 220 l0 185 76 5
77 5 -1 35 c0 19 -1 41 -2 48 -1 9 -48 12 -200 12 -110 0 -202 -3 -204 -7z"/>
<path d="M3429 2113 c-2 -16 -4 -138 -4 -273 l1 -245 52 -1 52 -1 0 273 0 274
-49 0 c-46 0 -49 -2 -52 -27z"/>
<path d="M4259 2038 c0 -94 0 -338 1 -415 0 -31 1 -31 51 -31 l50 -1 -3 194
c-3 177 1 212 20 166 4 -9 54 -94 111 -188 l104 -173 53 0 54 0 0 275 0 275
-50 0 c-33 0 -50 -4 -51 -12 -4 -43 2 -331 6 -339 4 -5 2 -9 -3 -9 -5 0 -57
81 -117 180 l-108 180 -58 0 -59 0 -1 -102z"/>
</g>
</svg>
